HIERARCHY
ROOT Hips
{
 OFFSET 0.000000 0.000000 0.000000
 CHANNELS 6 Xposition Yposition Zposition Yrotation Xrotation Zrotation
 JOINT Chest
 {
  OFFSET 0.000000 9.585900 0.002600
  CHANNELS 3 Yrotation Xrotation Zrotation
  JOINT Chest2
  {
   OFFSET 0.000000 9.601200 -0.005300
   CHANNELS 3 Yrotation Xrotation Zrotation
   JOINT Chest3
   {
    OFFSET 0.000000 9.561800 0.000000
    CHANNELS 3 Yrotation Xrotation Zrotation
    JOINT Chest4
    {
     OFFSET 0.000000 9.552100 0.000000
     CHANNELS 3 Yrotation Xrotation Zrotation
     JOINT Neck
     {
      OFFSET 0.000000 14.453000 0.000000
      CHANNELS 3 Yrotation Xrotation Zrotation
      JOINT Head
      {
       OFFSET 0.000000 8.936500 -0.011300
       CHANNELS 3 Yrotation Xrotation Zrotation
       End Site
       {
        OFFSET 0.000000 17.073600 -0.006000
       }
      }
     }
     JOINT RightCollar
     {
      OFFSET -2.921100 9.558500 0.000000
      CHANNELS 3 Yrotation Xrotation Zrotation
      JOINT RightShoulder
      {
       OFFSET -13.519700 0.000000 0.000000
       CHANNELS 3 Yrotation Xrotation Zrotation
       JOINT RightElbow
       {
        OFFSET 0.000000 -29.696600 0.000000
        CHANNELS 3 Yrotation Xrotation Zrotation
        JOINT RightWrist
        {
         OFFSET 0.000000 -24.004700 0.000000
         CHANNELS 3 Yrotation Xrotation Zrotation
         End Site
         {
          OFFSET 0.000000 -17.728500 0.000000
         }
        }
       }
      }
     }
     JOINT LeftCollar
     {
      OFFSET 2.921100 9.558500 0.000000
      CHANNELS 3 Yrotation Xrotation Zrotation
      JOINT LeftShoulder
      {
       OFFSET 13.519700 0.000000 0.000000
       CHANNELS 3 Yrotation Xrotation Zrotation
       JOINT LeftElbow
       {
        OFFSET 0.000000 -29.696600 0.000000
        CHANNELS 3 Yrotation Xrotation Zrotation
        JOINT LeftWrist
        {
         OFFSET 0.000000 -24.004700 0.000000
         CHANNELS 3 Yrotation Xrotation Zrotation
         End Site
         {
          OFFSET 0.000000 -17.728500 0.000000
         }
        }
       }
      }
     }
    }
   }
  }
 }
 JOINT RightHip
 {
  OFFSET -7.771700 -0.012900 -0.001300
  CHANNELS 3 Yrotation Xrotation Zrotation
  JOINT RightKnee
  {
   OFFSET 0.000000 -40.869800 0.001200
   CHANNELS 3 Yrotation Xrotation Zrotation
   JOINT RightAnkle
   {
    OFFSET 0.000000 -39.717900 0.002100
    CHANNELS 3 Yrotation Xrotation Zrotation
    JOINT RightToe
    {
     OFFSET 0.000000 -4.965400 11.033500
     CHANNELS 3 Yrotation Xrotation Zrotation
     End Site
     {
      OFFSET 0.000000 -1.423100 5.872300
     }
    }
   }
  }
 }
 JOINT LeftHip
 {
  OFFSET 7.771700 -0.012900 -0.001300
  CHANNELS 3 Yrotation Xrotation Zrotation
  JOINT LeftKnee
  {
   OFFSET 0.000000 -40.869800 0.001200
   CHANNELS 3 Yrotation Xrotation Zrotation
   JOINT LeftAnkle
   {
    OFFSET 0.000000 -39.717900 0.002100
    CHANNELS 3 Yrotation Xrotation Zrotation
    JOINT LeftToe
    {
     OFFSET 0.000000 -4.965400 11.033500
     CHANNELS 3 Yrotation Xrotation Zrotation
     End Site
     {
      OFFSET 0.000000 -1.423100 5.872300
     }
    }
   }
  }
 }
}
MOTION
Frames: 16
Frame Time: 0.008333
0.000000 85.388000 0.000000 0.000000 -5.767877 0.000000 0.000000 11.653817 0.000000 0.000000 -5.885947 0.000000 0.000000 -0.000000 0.000000 0.000000 -0.000000 0.000000 0.000000 12.528835 0.000000 0.000000 0.711642 0.000000 0.000000 -0.000000 0.000000 0.000000 0.000000 -90.000000 0.000000 -2.309062 0.000000 0.000000 2.309062 0.000000 0.000000 -0.000000 0.000000 0.000000 -0.000000 90.000000 0.000000 -2.309062 0.000000 0.000000 2.309062 0.000000 0.000000 8.520406 0.000000 0.000000 1.905762 0.000000 -0.000000 -4.658285 0.000000 0.000000 -0.000000 0.000000 0.000000 8.520406 0.000000 0.000000 1.905762 0.000000 -0.000000 -4.658285 0.000000 0.000000 -0.000000 0.000000
-239.372737 57.639579 21.296138 174.502593 -49.082989 -3.068977 4.694417 22.999312 3.896389 2.429566 13.181444 1.948516 3.130499 16.462138 2.543160 2.429564 13.181367 1.948595 1.132323 18.488599 3.645402 0.907718 -1.439141 6.326106 1.735859 4.318110 1.873795 1.851661 -17.917299 -12.983692 -74.496889 -45.841810 131.757638 3.834239 1.032127 -17.583787 -10.848830 1.847405 -1.076257 0.501572 -16.286220 11.668747 77.119447 -49.106927 -131.199236 -2.342248 -2.586335 2.508599 8.442447 -22.769637 -0.000232 -45.367984 71.921095 -48.690351 3.265843 -13.854251 12.980742 0.006403 0.006768 0.011529 -10.933328 -20.323620 8.703356 57.187357 81.269054 59.034127 0.601869 -18.053099 -23.128902 0.002426 0.019868 -0.010467
-239.375693 57.639226 21.300342 174.490841 -48.990423 -3.057131 4.702951 23.007585 3.900344 2.435879 13.185659 1.953998 3.138640 16.467385 2.550287 2.435880 13.185615 1.954061 1.138849 18.415540 3.636002 0.919683 -1.575151 6.307964 1.699985 4.305382 1.829645 1.746394 -17.920305 -12.918681 -74.733155 -45.945594 131.972409 3.972099 1.179964 -17.381124 -10.828810 1.825870 -1.033574 0.575892 -16.293360 11.616924 77.216945 -49.196626 -131.325960 -2.335720 -2.565001 2.330461 8.461313 -22.859620 -0.017790 -45.351387 71.919985 -48.668727 3.259576 -13.856283 12.979594 0.006070 0.006627 0.010792 -10.970712 -20.411329 8.710608 57.173334 81.257514 58.995145 0.618202 -18.040868 -23.130183 -0.002946 0.019550 -0.012305
-239.378822 57.639848 21.303398 174.475672 -48.889463 -3.042923 4.707718 23.008588 3.901095 2.440632 13.186546 1.957916 3.144780 16.468470 2.555379 2.431769 13.137934 1.941154 1.143265 18.383325 3.631523 0.955134 -1.654083 6.296378 1.674629 4.342130 1.795762 1.641713 -17.928454 -12.857130 -74.957421 -46.068647 132.158086 4.115486 1.330745 -17.219089 -10.795878 1.856635 -0.988785 0.596974 -16.336243 11.567241 77.303362 -49.309418 -131.357116 -2.331867 -2.523393 2.186333 8.482585 -22.958308 -0.036299 -45.337934 71.918575 -48.650482 3.257083 -13.854269 12.980639 0.008249 0.005269 0.010020 -10.997918 -20.509338 8.719907 57.160617 81.247706 58.961425 0.627901 -18.029198 -23.122907 -0.006856 0.017777 -0.017299
-239.380537 57.641635 21.304756 174.459946 -48.785184 -3.036944 4.713316 23.003622 3.909289 2.443890 13.137452 1.952251 3.149255 16.513736 2.570412 2.440226 13.162225 1.952449 1.136022 18.288741 3.602380 0.994612 -1.698641 6.285663 1.637318 4.303154 1.738501 1.547358 -17.937206 -12.808714 -75.166879 -46.206994 132.311501 4.249628 1.477151 -17.096752 -10.772128 1.811754 -0.956189 0.620529 -16.371250 11.521538 77.368097 -49.427541 -131.360733 -2.339338 -2.475118 2.083926 8.507911 -23.058792 -0.038567 -45.312874 71.912143 -48.616779 3.243572 -13.847120 12.980503 0.017181 0.003723 0.011631 -11.019561 -20.609946 8.736850 57.186526 81.237402 58.977400 0.638836 -18.020788 -23.125325 -0.012657 0.015577 -0.017692
-239.381922 57.649825 21.298977 174.451661 -48.724218 -3.034785 4.715344 23.040064 3.917486 2.445289 13.158150 1.958678 3.149343 16.485086 2.566301 2.444308 13.181463 1.962195 1.174521 18.281176 3.605619 1.007965 -1.784274 6.256161 1.603514 4.263885 1.686843 1.468497 -17.944192 -12.774923 -75.356404 -46.357370 132.425809 4.367126 1.610344 -17.014217 -10.752800 1.755798 -0.938041 0.689824 -16.342031 11.496326 77.424384 -49.538743 -131.402806 -2.361834 -2.438466 2.024867 8.537133 -23.114359 -0.043338 -45.312872 71.909046 -48.600311 3.238406 -13.842399 12.982897 0.021452 -0.003041 0.011930 -11.032366 -20.667244 8.738458 57.202846 81.242304 58.995165 0.664206 -18.016518 -23.132041 -0.018619 0.008099 -0.017926
-239.384730 57.655879 21.292864 174.438982 -48.644081 -3.020288 4.715539 23.055284 3.913546 2.444620 13.155129 1.960118 3.150603 16.473876 2.565575 2.444246 13.160384 1.958502 1.202712 18.301932 3.613294 1.037937 -1.816501 6.239589 1.570493 4.259705 1.656864 1.408508 -17.946916 -12.753618 -75.509766 -46.513026 132.491247 4.473739 1.717769 -16.982219 -10.729474 1.752457 -0.912604 0.741369 -16.317764 11.476567 77.448493 -49.643377 -131.394261 -2.391140 -2.424626 2.004516 8.551308 -23.190425 -0.061918 -45.294880 71.918537 -48.583196 3.218487 -13.825599 12.980707 0.045123 -0.023635 0.019324 -11.032129 -20.744058 8.747974 57.201722 81.242473 58.994114 0.675762 -18.008607 -23.130969 -0.032015 0.000976 -0.021030
-239.385802 57.651881 21.293786 174.427251 -48.484136 -3.019959 4.716308 22.983074 3.917512 2.444063 13.089845 1.951710 3.151022 16.519243 2.576380 2.443421 13.111730 1.945642 1.213784 18.315905 3.617562 1.082585 -1.776288 6.243821 1.535861 4.282853 1.645292 1.369035 -17.945134 -12.741148 -75.613461 -46.663560 132.499773 4.572730 1.794178 -16.996700 -10.706597 1.792362 -0.880317 0.792735 -16.239405 11.467279 77.512423 -49.737672 -131.439884 -2.419676 -2.430103 2.024542 8.566901 -23.350591 -0.082025 -45.288015 71.924667 -48.571198 3.235079 -13.849155 12.987967 0.019496 -0.007477 0.009143 -11.040781 -20.903708 8.785103 57.201818 81.247969 58.999261 0.666378 -18.018679 -23.130744 -0.016889 0.004005 -0.012575
-239.388168 57.652194 21.288227 174.420418 -48.364095 -3.010414 4.712911 22.941036 3.911349 2.443148 13.092785 1.951565 3.148600 16.470488 2.567334 2.444939 13.140635 1.954197 1.235545 18.332394 3.626996 1.113923 -1.758928 6.243231 1.500579 4.257219 1.626952 1.348679 -17.942464 -12.733790 -75.657421 -46.799959 132.443840 4.660471 1.842419 -17.038619 -10.700151 1.751316 -0.874017 0.794779 -16.164066 11.472864 77.518020 -49.823376 -131.373667 -2.444717 -2.441341 2.083024 8.589787 -23.471474 -0.112539 -45.326308 71.934453 -48.596198 3.228945 -13.851720 12.990780 0.021503 -0.013988 0.008069 -10.995202 -21.022131 8.786326 57.138211 81.250526 58.978762 0.668936 -18.031346 -23.125768 -0.015824 0.008685 -0.011073
-239.389815 57.655045 21.277996 174.418705 -48.272660 -3.004550 4.707304 22.916387 3.907466 2.441015 13.093837 1.949925 3.146954 16.431175 2.559817 2.442334 13.156668 1.961553 1.256916 18.359991 3.639024 1.147272 -1.717198 6.247172 1.471622 4.241182 1.615101 1.360397 -17.951877 -12.736829 -75.631117 -46.910294 132.300709 4.728148 1.868622 -17.096900 -10.692401 1.724082 -0.871312 0.764616 -16.109136 11.470103 77.471715 -49.891105 -131.233442 -2.465155 -2.447725 2.177518 8.596433 -23.562999 -0.135831 -45.359667 71.948102 -48.624758 3.226283 -13.857892 12.990411 0.023419 -0.021679 0.007177 -10.964615 -21.114059 8.787480 57.118093 81.262152 58.989272 0.672486 -18.038205 -23.119972 -0.015657 0.003306 -0.010345
-239.392321 57.655712 21.267045 174.399146 -48.176086 -2.977995 4.707301 22.876338 3.892978 2.440044 13.090886 1.950503 3.140596 16.414655 2.556630 2.437505 13.143461 1.959417 1.274963 18.392518 3.648115 1.186210 -1.643363 6.260455 1.451739 4.240990 1.609174 1.374902 -17.957723 -12.743780 -75.537970 -46.996851 132.111156 4.757490 1.878422 -17.176153 -10.696593 1.759254 -0.857947 0.731603 -16.100529 11.449965 77.394628 -49.935621 -131.057985 -2.480155 -2.441567 2.311282 8.615457 -23.660522 -0.168114 -45.397229 71.961028 -48.662164 3.212256 -13.841160 12.987664 0.043796 -0.048042 0.014592 -10.912768 -21.214739 8.783355 57.112050 81.278688 59.019810 0.674032 -18.042891 -23.108678 -0.022714 -0.006698 -0.014640
-239.392497 57.657556 21.252881 174.392331 -48.101805 -2.971074 4.702899 22.850004 3.888968 2.436711 13.085732 1.950082 3.135245 16.398897 2.553289 2.418858 13.137441 1.961369 1.304734 18.429361 3.652285 1.224749 -1.560042 6.277509 1.463637 4.232927 1.593673 1.368343 -17.946642 -12.737938 -75.385033 -47.071427 131.895873 4.738009 1.872662 -17.280864 -10.686141 1.764073 -0.871975 0.678913 -16.064311 11.451138 77.294195 -49.954199 -130.859470 -2.494292 -2.415759 2.482443 8.620261 -23.737289 -0.184321 -45.463645 71.970782 -48.731387 3.223515 -13.846794 12.993090 0.038692 -0.060186 0.012187 -10.862345 -21.291654 8.781925 57.111404 81.297811 59.066741 0.671355 -18.054683 -23.106428 -0.025648 -0.014624 -0.012213
-239.391795 57.658967 21.236770 174.388757 -48.039094 -2.968801 4.697989 22.829767 3.888146 2.425938 13.103033 1.950746 3.131443 16.361827 2.542259 2.427415 13.119748 1.953830 1.319095 18.483271 3.676235 1.259089 -1.475231 6.297980 1.456750 4.239844 1.596114 1.381031 -17.929055 -12.724631 -75.194859 -47.137097 131.647674 4.680090 1.858553 -17.406891 -10.691123 1.774838 -0.874820 0.607575 -16.018779 11.455777 77.181813 -49.947673 -130.646201 -2.514632 -2.372579 2.680226 8.622598 -23.800223 -0.195174 -45.545998 71.978393 -48.812785 3.235960 -13.863448 12.994576 0.037767 -0.064851 0.012726 -10.806551 -21.358413 8.779649 57.113699 81.322146 59.120336 0.676343 -18.067913 -23.100704 -0.022805 -0.017082 -0.011805
-239.393253 57.661808 21.216620 174.391298 -48.004285 -2.954074 4.685367 22.836625 3.871577 2.422033 13.095235 1.949491 3.123751 16.349881 2.539836 2.423634 13.110184 1.952024 1.337806 18.518476 3.683268 1.290500 -1.382874 6.328843 1.447970 4.250586 1.600049 1.415932 -17.936139 -12.739386 -74.954328 -47.156215 131.362603 4.597784 1.854390 -17.545360 -10.690093 1.778092 -0.887553 0.530056 -15.977038 11.463768 77.067010 -49.922034 -130.427052 -2.542985 -2.326500 2.886152 8.626407 -23.837848 -0.220819 -45.688612 71.995770 -48.966979 3.262719 -13.887072 13.010903 0.016671 -0.077675 0.008449 -10.741424 -21.400556 8.753454 57.132915 81.339729 59.190121 0.672253 -18.077366 -23.089847 -0.019323 -0.027116 -0.012457
-239.392891 57.662997 21.196118 174.386473 -47.971267 -2.942864 4.681495 22.845346 3.862839 2.420446 13.090234 1.947288 3.115806 16.368234 2.541872 2.419354 13.099110 1.947679 1.360049 18.535531 3.694306 1.316750 -1.319116 6.358112 1.444170 4.239003 1.610221 1.475442 -17.942495 -12.761832 -74.724661 -47.151692 131.086526 4.501099 1.872591 -17.683198 -10.708753 1.766171 -0.900888 0.515941 -15.981464 11.475093 76.903625 -49.877082 -130.199931 -2.575213 -2.292779 3.079980 8.626856 -23.873854 -0.234047 -45.776489 72.011681 -49.065048 3.257772 -13.897407 13.020376 0.016151 -0.088634 0.007692 -10.706646 -21.436102 8.744144 57.261225 81.354044 59.344442 0.665890 -18.094864 -23.084307 -0.017896 -0.035342 -0.013904
-239.390188 57.661455 21.176643 174.369597 -47.929814 -2.935753 4.689421 22.846730 3.865969 2.418821 13.095900 1.945340 3.118244 16.336015 2.536812 2.416431 13.115116 1.947782 1.377645 18.573757 3.719701 1.337362 -1.289724 6.382361 1.438659 4.242070 1.632331 1.626863 -17.922102 -12.822926 -74.606827 -47.116616 130.851726 4.399149 1.909034 -17.806071 -10.777404 1.804610 -0.940207 0.474495 -15.990876 11.529644 76.873484 -49.848415 -130.049426 -2.610108 -2.276589 3.249569 8.629780 -23.921714 -0.233334 -45.869875 72.029642 -49.170475 3.270070 -13.921597 13.024512 0.007220 -0.092726 0.008788 -10.670807 -21.478978 8.753035 57.517222 81.382410 59.623592 0.665150 -18.142253 -23.079820 -0.019673 -0.034282 -0.015114
